<svg id="svg" version="1.1" xmlns="http://www.w3.org/2000/svg" xmlns:xlink="http://www.w3.org/1999/xlink" width="400" height="400" viewBox="0, 0, 400,400"><g id="svgg"><path id="path0" d="M101.700 112.198 C 101.425 112.511,101.200 113.044,101.200 113.383 C 101.200 113.722,101.020 114.000,100.800 114.000 C 100.580 114.000,100.400 114.360,100.400 114.800 C 100.400 115.240,100.220 115.600,100.000 115.600 C 99.780 115.600,99.600 115.960,99.600 116.400 C 99.600 116.840,99.420 117.200,99.200 117.200 C 98.980 117.200,98.800 117.560,98.800 118.000 C 98.800 118.440,98.620 118.800,98.400 118.800 C 98.180 118.800,98.000 119.160,98.000 119.600 C 98.000 120.040,97.820 120.400,97.600 120.400 C 97.380 120.400,97.200 120.940,97.200 121.600 C 97.200 122.260,97.020 122.800,96.800 122.800 C 96.580 122.800,96.400 123.149,96.400 123.576 C 96.400 124.003,96.220 124.464,96.000 124.600 C 95.780 124.736,95.600 125.287,95.600 125.824 C 95.600 126.361,95.420 126.800,95.200 126.800 C 94.980 126.800,94.800 127.340,94.800 128.000 C 94.800 128.660,94.620 129.200,94.400 129.200 C 94.180 129.200,94.000 129.740,94.000 130.400 C 94.000 131.060,93.820 131.600,93.600 131.600 C 93.380 131.600,93.200 132.320,93.200 133.200 C 93.200 134.080,93.020 134.800,92.800 134.800 C 92.580 134.800,92.400 135.520,92.400 136.400 C 92.400 137.280,92.220 138.000,92.000 138.000 C 91.780 138.000,91.600 138.720,91.600 139.600 C 91.600 140.480,91.420 141.200,91.200 141.200 C 90.971 141.200,90.800 142.400,90.800 144.000 C 90.800 145.600,90.629 146.800,90.400 146.800 C 90.162 146.800,90.000 148.325,90.000 150.576 C 90.000 152.653,89.828 154.459,89.617 154.589 C 89.025 154.955,89.818 175.600,90.424 175.600 C 90.631 175.600,90.800 176.680,90.800 178.000 C 90.800 179.333,90.978 180.400,91.200 180.400 C 91.420 180.400,91.600 181.109,91.600 181.976 C 91.600 182.843,91.780 183.664,92.000 183.800 C 92.220 183.936,92.400 184.847,92.400 185.824 C 92.400 186.801,92.580 187.600,92.800 187.600 C 93.020 187.600,93.200 188.140,93.200 188.800 C 93.200 189.460,93.380 190.000,93.600 190.000 C 93.820 190.000,94.000 190.720,94.000 191.600 C 94.000 192.480,94.180 193.200,94.400 193.200 C 94.620 193.200,94.800 193.740,94.800 194.400 C 94.800 195.060,94.980 195.600,95.200 195.600 C 95.420 195.600,95.600 195.960,95.600 196.400 C 95.600 196.840,95.780 197.200,96.000 197.200 C 96.220 197.200,96.400 197.740,96.400 198.400 C 96.400 199.060,96.580 199.600,96.800 199.600 C 97.020 199.600,97.200 199.960,97.200 200.400 C 97.200 200.840,97.380 201.200,97.600 201.200 C 97.820 201.200,98.000 201.740,98.000 202.400 C 98.000 203.060,98.180 203.600,98.400 203.600 C 98.620 203.600,98.800 203.960,98.800 204.400 C 98.800 204.840,98.980 205.200,99.200 205.200 C 99.420 205.200,99.600 205.560,99.600 206.000 C 99.600 206.440,99.735 206.801,99.900 206.803 C 100.247 206.807,101.200 208.734,101.200 209.433 C 101.200 209.694,101.525 209.992,101.922 210.096 C 102.928 210.359,105.200 209.984,105.200 209.555 C 105.200 209.360,105.483 209.200,105.829 209.200 C 106.174 209.200,106.714 208.943,107.029 208.629 C 107.684 207.973,107.794 206.800,107.200 206.800 C 106.980 206.800,106.800 206.440,106.800 206.000 C 106.800 205.560,106.620 205.200,106.400 205.200 C 106.180 205.200,106.000 204.840,106.000 204.400 C 106.000 203.960,105.820 203.600,105.600 203.600 C 105.380 203.600,105.200 203.240,105.200 202.800 C 105.200 202.360,105.020 202.000,104.800 202.000 C 104.580 202.000,104.400 201.640,104.400 201.200 C 104.400 200.760,104.220 200.400,104.000 200.400 C 103.780 200.400,103.600 199.860,103.600 199.200 C 103.600 198.540,103.420 198.000,103.200 198.000 C 102.980 198.000,102.800 197.640,102.800 197.200 C 102.800 196.760,102.620 196.400,102.400 196.400 C 102.180 196.400,102.000 195.961,102.000 195.424 C 102.000 194.887,101.820 194.336,101.600 194.200 C 101.380 194.064,101.200 193.603,101.200 193.176 C 101.200 192.749,101.020 192.400,100.800 192.400 C 100.580 192.400,100.400 191.860,100.400 191.200 C 100.400 190.540,100.220 190.000,100.000 190.000 C 99.780 190.000,99.600 189.280,99.600 188.400 C 99.600 187.520,99.420 186.800,99.200 186.800 C 98.980 186.800,98.800 186.080,98.800 185.200 C 98.800 184.320,98.620 183.600,98.400 183.600 C 98.180 183.600,98.000 182.880,98.000 182.000 C 98.000 181.120,97.820 180.400,97.600 180.400 C 97.380 180.400,97.200 179.500,97.200 178.400 C 97.200 177.300,97.020 176.400,96.800 176.400 C 96.563 176.400,96.400 174.933,96.400 172.800 C 96.400 170.667,96.237 169.200,96.000 169.200 C 95.746 169.200,95.600 166.133,95.600 160.800 C 95.600 155.467,95.746 152.400,96.000 152.400 C 96.233 152.400,96.400 151.075,96.400 149.224 C 96.400 147.477,96.580 145.936,96.800 145.800 C 97.020 145.664,97.200 144.764,97.200 143.800 C 97.200 142.836,97.380 141.936,97.600 141.800 C 97.820 141.664,98.000 140.753,98.000 139.776 C 98.000 138.799,98.180 138.000,98.400 138.000 C 98.620 138.000,98.800 137.280,98.800 136.400 C 98.800 135.520,98.980 134.800,99.200 134.800 C 99.420 134.800,99.600 134.271,99.600 133.624 C 99.600 132.977,99.780 132.336,100.000 132.200 C 100.220 132.064,100.400 131.513,100.400 130.976 C 100.400 130.439,100.580 130.000,100.800 130.000 C 101.020 130.000,101.200 129.460,101.200 128.800 C 101.200 128.140,101.380 127.600,101.600 127.600 C 101.820 127.600,102.000 127.240,102.000 126.800 C 102.000 126.360,102.180 126.000,102.400 126.000 C 102.620 126.000,102.800 125.460,102.800 124.800 C 102.800 124.140,102.980 123.600,103.200 123.600 C 103.420 123.600,103.600 123.240,103.600 122.800 C 103.600 122.360,103.780 122.000,104.000 122.000 C 104.220 122.000,104.400 121.640,104.400 121.200 C 104.400 120.760,104.580 120.400,104.800 120.400 C 105.020 120.400,105.200 120.040,105.200 119.600 C 105.200 119.160,105.380 118.800,105.600 118.800 C 105.820 118.800,106.000 118.440,106.000 118.000 C 106.000 117.560,106.180 117.200,106.400 117.200 C 106.620 117.200,106.800 116.840,106.800 116.400 C 106.800 115.960,106.980 115.600,107.200 115.600 C 107.420 115.600,107.600 115.306,107.600 114.947 C 107.600 114.216,105.675 112.401,104.900 112.400 C 104.625 112.400,104.400 112.220,104.400 112.000 C 104.400 111.394,102.270 111.551,101.700 112.198 M112.400 118.000 C 112.400 118.440,112.220 118.800,112.000 118.800 C 111.780 118.800,111.600 119.160,111.600 119.600 C 111.600 120.040,111.420 120.400,111.200 120.400 C 110.980 120.400,110.800 120.760,110.800 121.200 C 110.800 121.640,110.620 122.000,110.400 122.000 C 110.180 122.000,110.000 122.360,110.000 122.800 C 110.000 123.240,109.820 123.600,109.600 123.600 C 109.380 123.600,109.200 123.960,109.200 124.400 C 109.200 124.840,109.020 125.200,108.800 125.200 C 108.580 125.200,108.400 125.740,108.400 126.400 C 108.400 127.060,108.220 127.600,108.000 127.600 C 107.780 127.600,107.600 128.140,107.600 128.800 C 107.600 129.460,107.420 130.000,107.200 130.000 C 106.980 130.000,106.800 130.349,106.800 130.776 C 106.800 131.203,106.620 131.664,106.400 131.800 C 106.180 131.936,106.000 132.566,106.000 133.200 C 106.000 133.834,105.820 134.464,105.600 134.600 C 105.380 134.736,105.200 135.377,105.200 136.024 C 105.200 136.671,105.020 137.200,104.800 137.200 C 104.580 137.200,104.400 137.920,104.400 138.800 C 104.400 139.680,104.220 140.400,104.000 140.400 C 103.780 140.400,103.600 141.109,103.600 141.976 C 103.600 142.843,103.420 143.664,103.200 143.800 C 102.980 143.936,102.800 145.207,102.800 146.624 C 102.800 148.075,102.625 149.200,102.400 149.200 C 102.142 149.200,102.000 153.467,102.000 161.200 C 102.000 168.933,102.142 173.200,102.400 173.200 C 102.622 173.200,102.800 174.267,102.800 175.600 C 102.800 176.933,102.978 178.000,103.200 178.000 C 103.420 178.000,103.600 178.900,103.600 180.000 C 103.600 181.100,103.780 182.000,104.000 182.000 C 104.220 182.000,104.400 182.720,104.400 183.600 C 104.400 184.480,104.580 185.200,104.800 185.200 C 105.020 185.200,105.200 185.740,105.200 186.400 C 105.200 187.060,105.380 187.600,105.600 187.600 C 105.820 187.600,106.000 188.140,106.000 188.800 C 106.000 189.460,106.180 190.000,106.400 190.000 C 106.620 190.000,106.800 190.540,106.800 191.200 C 106.800 191.860,106.980 192.400,107.200 192.400 C 107.420 192.400,107.600 192.839,107.600 193.376 C 107.600 193.913,107.780 194.464,108.000 194.600 C 108.220 194.736,108.400 195.197,108.400 195.624 C 108.400 196.051,108.580 196.400,108.800 196.400 C 109.020 196.400,109.200 196.760,109.200 197.200 C 109.200 197.640,109.380 198.000,109.600 198.000 C 109.820 198.000,110.000 198.540,110.000 199.200 C 110.000 199.860,110.180 200.400,110.400 200.400 C 110.620 200.400,110.800 200.760,110.800 201.200 C 110.800 201.640,110.935 202.001,111.100 202.003 C 111.459 202.007,112.400 203.944,112.400 204.680 C 112.400 205.564,115.325 205.337,116.000 204.400 C 116.317 203.960,116.897 203.600,117.288 203.600 C 118.346 203.600,118.281 200.453,117.200 199.292 C 116.760 198.820,116.400 198.156,116.400 197.817 C 116.400 197.478,116.220 197.200,116.000 197.200 C 115.780 197.200,115.600 196.660,115.600 196.000 C 115.600 195.340,115.465 194.799,115.300 194.797 C 114.941 194.793,114.000 192.856,114.000 192.120 C 114.000 191.834,113.820 191.600,113.600 191.600 C 113.380 191.600,113.200 191.060,113.200 190.400 C 113.200 189.740,113.020 189.200,112.800 189.200 C 112.580 189.200,112.400 188.660,112.400 188.000 C 112.400 187.340,112.220 186.800,112.000 186.800 C 111.780 186.800,111.600 186.260,111.600 185.600 C 111.600 184.940,111.420 184.400,111.200 184.400 C 110.980 184.400,110.800 183.860,110.800 183.200 C 110.800 182.540,110.620 182.000,110.400 182.000 C 110.180 182.000,110.000 181.100,110.000 180.000 C 110.000 178.900,109.820 178.000,109.600 178.000 C 109.380 178.000,109.200 177.100,109.200 176.000 C 109.200 174.900,109.020 174.000,108.800 174.000 C 108.563 174.000,108.400 172.533,108.400 170.400 C 108.400 168.267,108.237 166.800,108.000 166.800 C 107.751 166.800,107.600 164.533,107.600 160.800 C 107.600 157.067,107.751 154.800,108.000 154.800 C 108.233 154.800,108.400 153.467,108.400 151.600 C 108.400 149.733,108.567 148.400,108.800 148.400 C 109.020 148.400,109.200 147.511,109.200 146.424 C 109.200 145.337,109.380 144.336,109.600 144.200 C 109.820 144.064,110.000 143.153,110.000 142.176 C 110.000 141.199,110.180 140.400,110.400 140.400 C 110.620 140.400,110.800 139.860,110.800 139.200 C 110.800 138.540,110.980 138.000,111.200 138.000 C 111.420 138.000,111.600 137.280,111.600 136.400 C 111.600 135.520,111.780 134.800,112.000 134.800 C 112.220 134.800,112.400 134.440,112.400 134.000 C 112.400 133.560,112.580 133.200,112.800 133.200 C 113.020 133.200,113.200 132.660,113.200 132.000 C 113.200 131.340,113.380 130.800,113.600 130.800 C 113.820 130.800,114.000 130.440,114.000 130.000 C 114.000 129.560,114.180 129.200,114.400 129.200 C 114.620 129.200,114.800 128.660,114.800 128.000 C 114.800 127.340,114.980 126.800,115.200 126.800 C 115.420 126.800,115.600 126.440,115.600 126.000 C 115.600 125.560,115.780 125.200,116.000 125.200 C 116.220 125.200,116.400 124.840,116.400 124.400 C 116.400 123.960,116.580 123.600,116.800 123.600 C 117.020 123.600,117.200 123.240,117.200 122.800 C 117.200 122.360,117.380 122.000,117.600 122.000 C 118.214 122.000,118.075 119.218,117.429 118.571 C 117.114 118.257,116.574 118.000,116.229 118.000 C 115.883 118.000,115.600 117.820,115.600 117.600 C 115.600 117.380,114.880 117.200,114.000 117.200 C 112.667 117.200,112.400 117.333,112.400 118.000 M123.300 122.598 C 123.025 122.911,122.800 123.444,122.800 123.783 C 122.800 124.122,122.620 124.400,122.400 124.400 C 122.180 124.400,122.000 124.760,122.000 125.200 C 122.000 125.640,121.820 126.000,121.600 126.000 C 121.380 126.000,121.200 126.360,121.200 126.800 C 121.200 127.240,121.020 127.600,120.800 127.600 C 120.580 127.600,120.400 127.834,120.400 128.120 C 120.400 128.856,119.459 130.793,119.100 130.797 C 118.935 130.799,118.800 131.329,118.800 131.976 C 118.800 132.623,118.620 133.264,118.400 133.400 C 118.180 133.536,118.000 134.087,118.000 134.624 C 118.000 135.161,117.820 135.600,117.600 135.600 C 117.380 135.600,117.200 136.140,117.200 136.800 C 117.200 137.460,117.020 138.000,116.800 138.000 C 116.580 138.000,116.400 138.540,116.400 139.200 C 116.400 139.860,116.220 140.400,116.000 140.400 C 115.780 140.400,115.600 141.300,115.600 142.400 C 115.600 143.500,115.420 144.400,115.200 144.400 C 114.980 144.400,114.800 145.300,114.800 146.400 C 114.800 147.500,114.620 148.400,114.400 148.400 C 114.163 148.400,114.000 149.859,114.000 151.976 C 114.000 153.943,113.820 155.664,113.600 155.800 C 113.371 155.941,113.200 157.996,113.200 160.600 C 113.200 163.204,113.371 165.259,113.600 165.400 C 113.821 165.537,114.000 167.337,114.000 169.424 C 114.000 171.675,114.162 173.200,114.400 173.200 C 114.622 173.200,114.800 174.267,114.800 175.600 C 114.800 176.933,114.978 178.000,115.200 178.000 C 115.420 178.000,115.600 178.720,115.600 179.600 C 115.600 180.480,115.780 181.200,116.000 181.200 C 116.220 181.200,116.400 181.740,116.400 182.400 C 116.400 183.060,116.580 183.600,116.800 183.600 C 117.020 183.600,117.200 184.219,117.200 184.976 C 117.200 185.733,117.380 186.464,117.600 186.600 C 117.820 186.736,118.000 187.197,118.000 187.624 C 118.000 188.051,118.180 188.400,118.400 188.400 C 118.620 188.400,118.800 188.940,118.800 189.600 C 118.800 190.260,118.980 190.800,119.200 190.800 C 119.420 190.800,119.600 191.160,119.600 191.600 C 119.600 192.040,119.780 192.400,120.000 192.400 C 120.220 192.400,120.400 192.940,120.400 193.600 C 120.400 194.260,120.535 194.801,120.700 194.803 C 121.059 194.807,122.000 196.744,122.000 197.480 C 122.000 197.766,122.180 198.000,122.400 198.000 C 122.620 198.000,122.800 198.242,122.800 198.538 C 122.800 199.477,124.348 200.612,124.889 200.071 C 125.148 199.812,125.644 199.600,125.992 199.600 C 126.339 199.600,126.883 199.240,127.200 198.800 C 127.517 198.360,128.097 198.000,128.488 198.000 C 129.012 198.000,129.200 197.684,129.200 196.800 C 129.200 196.140,129.020 195.600,128.800 195.600 C 128.580 195.600,128.400 195.280,128.400 194.888 C 128.400 194.497,128.040 193.917,127.600 193.600 C 127.160 193.283,126.800 192.703,126.800 192.312 C 126.800 191.920,126.620 191.600,126.400 191.600 C 126.180 191.600,126.000 191.161,126.000 190.624 C 126.000 190.087,125.820 189.536,125.600 189.400 C 125.380 189.264,125.200 188.803,125.200 188.376 C 125.200 187.949,125.020 187.600,124.800 187.600 C 124.580 187.600,124.400 187.060,124.400 186.400 C 124.400 185.740,124.220 185.200,124.000 185.200 C 123.780 185.200,123.600 184.840,123.600 184.400 C 123.600 183.960,123.420 183.600,123.200 183.600 C 122.980 183.600,122.800 182.880,122.800 182.000 C 122.800 181.120,122.620 180.400,122.400 180.400 C 122.180 180.400,122.000 179.680,122.000 178.800 C 122.000 177.920,121.820 177.200,121.600 177.200 C 121.380 177.200,121.200 176.480,121.200 175.600 C 121.200 174.720,121.020 174.000,120.800 174.000 C 120.575 174.000,120.400 172.875,120.400 171.424 C 120.400 170.007,120.220 168.736,120.000 168.600 C 119.756 168.449,119.600 165.396,119.600 160.776 C 119.600 155.992,119.747 153.200,120.000 153.200 C 120.222 153.200,120.400 152.133,120.400 150.800 C 120.400 149.467,120.578 148.400,120.800 148.400 C 121.020 148.400,121.200 147.500,121.200 146.400 C 121.200 145.300,121.380 144.400,121.600 144.400 C 121.820 144.400,122.000 143.680,122.000 142.800 C 122.000 141.920,122.180 141.200,122.400 141.200 C 122.620 141.200,122.800 140.660,122.800 140.000 C 122.800 139.340,122.980 138.800,123.200 138.800 C 123.420 138.800,123.600 138.260,123.600 137.600 C 123.600 136.940,123.780 136.400,124.000 136.400 C 124.220 136.400,124.400 136.051,124.400 135.624 C 124.400 135.197,124.580 134.736,124.800 134.600 C 125.020 134.464,125.200 133.913,125.200 133.376 C 125.200 132.839,125.380 132.400,125.600 132.400 C 125.820 132.400,126.000 132.040,126.000 131.600 C 126.000 131.160,126.180 130.800,126.400 130.800 C 126.620 130.800,126.800 130.440,126.800 130.000 C 126.800 129.560,126.980 129.200,127.200 129.200 C 127.420 129.200,127.600 128.840,127.600 128.400 C 127.600 127.960,127.780 127.600,128.000 127.600 C 128.220 127.600,128.400 127.240,128.400 126.800 C 128.400 126.360,128.580 126.000,128.800 126.000 C 129.533 126.000,129.212 124.776,128.218 123.782 C 127.678 123.242,126.958 122.800,126.618 122.800 C 126.278 122.800,126.000 122.620,126.000 122.400 C 126.000 121.794,123.870 121.951,123.300 122.598 M205.200 160.000 L 205.200 194.800 207.353 194.800 C 210.216 194.800,209.989 197.796,209.989 160.000 C 209.989 122.204,210.216 125.200,207.353 125.200 L 205.200 125.200 205.200 160.000 M134.500 128.198 C 134.225 128.511,134.000 129.044,134.000 129.383 C 134.000 129.722,133.820 130.000,133.600 130.000 C 133.380 130.000,133.200 130.360,133.200 130.800 C 133.200 131.240,133.020 131.600,132.800 131.600 C 132.580 131.600,132.400 131.960,132.400 132.400 C 132.400 132.840,132.220 133.200,132.000 133.200 C 131.780 133.200,131.600 133.560,131.600 134.000 C 131.600 134.440,131.420 134.800,131.200 134.800 C 130.980 134.800,130.800 135.340,130.800 136.000 C 130.800 136.660,130.620 137.200,130.400 137.200 C 130.180 137.200,130.000 137.560,130.000 138.000 C 130.000 138.440,129.820 138.800,129.600 138.800 C 129.380 138.800,129.200 139.340,129.200 140.000 C 129.200 140.660,129.020 141.200,128.800 141.200 C 128.580 141.200,128.400 141.729,128.400 142.376 C 128.400 143.023,128.220 143.664,128.000 143.800 C 127.780 143.936,127.600 144.847,127.600 145.824 C 127.600 146.801,127.420 147.600,127.200 147.600 C 126.978 147.600,126.800 148.667,126.800 150.000 C 126.800 151.333,126.622 152.400,126.400 152.400 C 126.146 152.400,126.000 155.392,126.000 160.576 C 126.000 165.596,126.154 168.848,126.400 169.000 C 126.620 169.136,126.800 170.317,126.800 171.624 C 126.800 172.941,126.978 174.000,127.200 174.000 C 127.420 174.000,127.600 174.900,127.600 176.000 C 127.600 177.100,127.780 178.000,128.000 178.000 C 128.220 178.000,128.400 178.540,128.400 179.200 C 128.400 179.860,128.580 180.400,128.800 180.400 C 129.020 180.400,129.200 180.940,129.200 181.600 C 129.200 182.260,129.380 182.800,129.600 182.800 C 129.820 182.800,130.000 183.340,130.000 184.000 C 130.000 184.660,130.180 185.200,130.400 185.200 C 130.620 185.200,130.800 185.740,130.800 186.400 C 130.800 187.060,130.935 187.601,131.100 187.603 C 131.459 187.607,132.400 189.544,132.400 190.280 C 132.400 190.566,132.580 190.800,132.800 190.800 C 133.020 190.800,133.200 191.160,133.200 191.600 C 133.200 192.040,133.380 192.400,133.600 192.400 C 133.820 192.400,134.000 192.683,134.000 193.029 C 134.000 194.717,136.581 195.414,137.600 194.000 C 137.917 193.560,138.420 193.200,138.717 193.200 C 140.333 193.200,140.872 191.057,139.600 189.692 C 139.160 189.220,138.800 188.556,138.800 188.217 C 138.800 187.878,138.620 187.600,138.400 187.600 C 138.180 187.600,138.000 187.240,138.000 186.800 C 138.000 186.360,137.820 186.000,137.600 186.000 C 137.380 186.000,137.200 185.640,137.200 185.200 C 137.200 184.760,137.020 184.400,136.800 184.400 C 136.580 184.400,136.400 183.860,136.400 183.200 C 136.400 182.540,136.220 182.000,136.000 182.000 C 135.780 182.000,135.600 181.460,135.600 180.800 C 135.600 180.140,135.420 179.600,135.200 179.600 C 134.980 179.600,134.800 179.060,134.800 178.400 C 134.800 177.740,134.620 177.200,134.400 177.200 C 134.180 177.200,134.000 176.480,134.000 175.600 C 134.000 174.720,133.820 174.000,133.600 174.000 C 133.380 174.000,133.200 173.100,133.200 172.000 C 133.200 170.900,133.020 170.000,132.800 170.000 C 132.545 170.000,132.400 166.667,132.400 160.800 C 132.400 154.933,132.545 151.600,132.800 151.600 C 133.020 151.600,133.200 150.700,133.200 149.600 C 133.200 148.500,133.380 147.600,133.600 147.600 C 133.820 147.600,134.000 146.880,134.000 146.000 C 134.000 145.120,134.180 144.400,134.400 144.400 C 134.620 144.400,134.800 143.860,134.800 143.200 C 134.800 142.540,134.980 142.000,135.200 142.000 C 135.420 142.000,135.600 141.640,135.600 141.200 C 135.600 140.760,135.780 140.400,136.000 140.400 C 136.220 140.400,136.400 139.860,136.400 139.200 C 136.400 138.540,136.580 138.000,136.800 138.000 C 137.020 138.000,137.200 137.640,137.200 137.200 C 137.200 136.760,137.380 136.400,137.600 136.400 C 137.820 136.400,138.000 136.166,138.000 135.880 C 138.000 135.144,138.941 133.207,139.300 133.203 C 139.465 133.201,139.600 132.840,139.600 132.400 C 139.600 131.960,139.780 131.600,140.000 131.600 C 140.220 131.600,140.400 131.060,140.400 130.400 C 140.400 129.467,140.222 129.200,139.600 129.200 C 139.160 129.200,138.800 129.020,138.800 128.800 C 138.800 128.580,138.440 128.400,138.000 128.400 C 137.560 128.400,137.200 128.220,137.200 128.000 C 137.200 127.394,135.070 127.551,134.500 128.198 M146.800 134.000 C 146.800 134.440,146.620 134.800,146.400 134.800 C 146.180 134.800,146.000 135.160,146.000 135.600 C 146.000 136.040,145.820 136.400,145.600 136.400 C 145.380 136.400,145.200 136.760,145.200 137.200 C 145.200 137.640,145.020 138.000,144.800 138.000 C 144.580 138.000,144.400 138.360,144.400 138.800 C 144.400 139.240,144.220 139.600,144.000 139.600 C 143.780 139.600,143.600 139.949,143.600 140.376 C 143.600 140.803,143.420 141.264,143.200 141.400 C 142.980 141.536,142.800 142.087,142.800 142.624 C 142.800 143.161,142.620 143.600,142.400 143.600 C 142.180 143.600,142.000 144.140,142.000 144.800 C 142.000 145.460,141.820 146.000,141.600 146.000 C 141.380 146.000,141.200 146.720,141.200 147.600 C 141.200 148.480,141.020 149.200,140.800 149.200 C 140.580 149.200,140.400 150.100,140.400 151.200 C 140.400 152.300,140.220 153.200,140.000 153.200 C 139.747 153.200,139.600 156.000,139.600 160.800 C 139.600 165.600,139.747 168.400,140.000 168.400 C 140.220 168.400,140.400 169.300,140.400 170.400 C 140.400 171.500,140.580 172.400,140.800 172.400 C 141.020 172.400,141.200 173.120,141.200 174.000 C 141.200 174.880,141.380 175.600,141.600 175.600 C 141.820 175.600,142.000 176.140,142.000 176.800 C 142.000 177.460,142.180 178.000,142.400 178.000 C 142.620 178.000,142.800 178.540,142.800 179.200 C 142.800 179.860,142.980 180.400,143.200 180.400 C 143.420 180.400,143.600 180.940,143.600 181.600 C 143.600 182.260,143.735 182.801,143.900 182.803 C 144.237 182.807,145.200 184.725,145.200 185.391 C 145.200 185.629,145.560 186.083,146.000 186.400 C 146.440 186.717,146.800 187.297,146.800 187.688 C 146.800 188.751,149.620 188.682,150.400 187.600 C 150.717 187.160,151.297 186.800,151.688 186.800 C 152.751 186.800,152.682 183.980,151.600 183.200 C 151.160 182.883,150.800 182.303,150.800 181.912 C 150.800 181.520,150.620 181.200,150.400 181.200 C 150.180 181.200,150.000 180.840,150.000 180.400 C 150.000 179.960,149.820 179.600,149.600 179.600 C 149.380 179.600,149.200 179.060,149.200 178.400 C 149.200 177.740,149.020 177.200,148.800 177.200 C 148.580 177.200,148.400 176.660,148.400 176.000 C 148.400 175.340,148.220 174.800,148.000 174.800 C 147.780 174.800,147.600 174.260,147.600 173.600 C 147.600 172.940,147.420 172.400,147.200 172.400 C 146.980 172.400,146.800 171.500,146.800 170.400 C 146.800 169.300,146.620 168.400,146.400 168.400 C 146.147 168.400,146.000 165.600,146.000 160.800 C 146.000 156.000,146.147 153.200,146.400 153.200 C 146.620 153.200,146.800 152.300,146.800 151.200 C 146.800 150.100,146.980 149.200,147.200 149.200 C 147.420 149.200,147.600 148.660,147.600 148.000 C 147.600 147.340,147.780 146.800,148.000 146.800 C 148.220 146.800,148.400 146.260,148.400 145.600 C 148.400 144.940,148.580 144.400,148.800 144.400 C 149.020 144.400,149.200 144.040,149.200 143.600 C 149.200 143.160,149.380 142.800,149.600 142.800 C 149.820 142.800,150.000 142.440,150.000 142.000 C 150.000 141.560,150.180 141.200,150.400 141.200 C 150.620 141.200,150.800 140.840,150.800 140.400 C 150.800 139.960,150.980 139.600,151.200 139.600 C 151.420 139.600,151.600 139.240,151.600 138.800 C 151.600 138.360,151.780 138.000,152.000 138.000 C 152.220 138.000,152.400 137.542,152.400 136.982 C 152.400 135.859,150.790 134.000,149.818 134.000 C 149.478 134.000,149.200 133.820,149.200 133.600 C 149.200 133.380,148.660 133.200,148.000 133.200 C 147.067 133.200,146.800 133.378,146.800 134.000 M159.300 140.198 C 159.025 140.511,158.800 141.044,158.800 141.383 C 158.800 141.722,158.620 142.000,158.400 142.000 C 158.180 142.000,158.000 142.360,158.000 142.800 C 158.000 143.240,157.820 143.600,157.600 143.600 C 157.380 143.600,157.200 143.960,157.200 144.400 C 157.200 144.840,157.020 145.200,156.800 145.200 C 156.580 145.200,156.400 145.560,156.400 146.000 C 156.400 146.440,156.220 146.800,156.000 146.800 C 155.780 146.800,155.600 147.340,155.600 148.000 C 155.600 148.660,155.420 149.200,155.200 149.200 C 154.980 149.200,154.800 149.920,154.800 150.800 C 154.800 151.680,154.620 152.400,154.400 152.400 C 154.171 152.400,154.000 153.600,154.000 155.200 C 154.000 156.800,153.829 158.000,153.600 158.000 C 153.378 158.000,153.200 159.067,153.200 160.400 C 153.200 161.733,153.378 162.800,153.600 162.800 C 153.833 162.800,154.000 164.133,154.000 166.000 C 154.000 167.867,154.167 169.200,154.400 169.200 C 154.620 169.200,154.800 169.920,154.800 170.800 C 154.800 171.680,154.980 172.400,155.200 172.400 C 155.420 172.400,155.600 172.940,155.600 173.600 C 155.600 174.260,155.780 174.800,156.000 174.800 C 156.220 174.800,156.400 175.340,156.400 176.000 C 156.400 176.660,156.580 177.200,156.800 177.200 C 157.020 177.200,157.200 177.478,157.200 177.817 C 157.200 178.156,157.560 178.820,158.000 179.292 C 158.440 179.764,158.800 180.387,158.800 180.675 C 158.800 180.964,158.980 181.200,159.200 181.200 C 159.420 181.200,159.600 181.560,159.600 182.000 C 159.600 182.608,159.867 182.800,160.712 182.800 C 161.365 182.800,162.061 182.470,162.400 182.000 C 162.717 181.560,163.220 181.200,163.517 181.200 C 163.814 181.200,164.314 180.943,164.629 180.629 C 165.278 179.979,165.407 178.000,164.800 178.000 C 164.580 178.000,164.400 177.680,164.400 177.288 C 164.400 176.897,164.040 176.317,163.600 176.000 C 163.160 175.683,162.800 175.103,162.800 174.712 C 162.800 174.320,162.620 174.000,162.400 174.000 C 162.180 174.000,162.000 173.460,162.000 172.800 C 162.000 172.140,161.820 171.600,161.600 171.600 C 161.380 171.600,161.200 171.060,161.200 170.400 C 161.200 169.740,161.020 169.200,160.800 169.200 C 160.580 169.200,160.400 168.300,160.400 167.200 C 160.400 166.100,160.220 165.200,160.000 165.200 C 159.758 165.200,159.600 163.475,159.600 160.824 C 159.600 158.337,159.773 156.340,160.000 156.200 C 160.220 156.064,160.400 155.333,160.400 154.576 C 160.400 153.819,160.580 153.200,160.800 153.200 C 161.020 153.200,161.200 152.480,161.200 151.600 C 161.200 150.720,161.380 150.000,161.600 150.000 C 161.820 150.000,162.000 149.640,162.000 149.200 C 162.000 148.760,162.180 148.400,162.400 148.400 C 162.620 148.400,162.800 148.040,162.800 147.600 C 162.800 147.160,162.980 146.800,163.200 146.800 C 163.420 146.800,163.600 146.440,163.600 146.000 C 163.600 145.560,163.780 145.200,164.000 145.200 C 164.220 145.200,164.400 144.840,164.400 144.400 C 164.400 143.960,164.580 143.600,164.800 143.600 C 165.506 143.600,165.242 141.590,164.500 141.315 C 164.115 141.172,163.509 140.728,163.153 140.328 C 162.377 139.455,160.024 139.376,159.300 140.198 M303.675 140.816 L 302.800 141.631 302.800 160.000 L 302.800 178.369 303.675 179.184 C 304.400 179.859,305.073 179.998,307.575 179.987 C 312.638 179.966,312.200 181.859,312.200 160.000 C 312.200 138.141,312.638 140.034,307.575 140.013 C 305.073 140.002,304.400 140.141,303.675 140.816 M215.200 160.000 C 215.200 171.733,215.339 178.000,215.600 178.000 C 215.820 178.000,216.000 177.846,216.000 177.659 C 216.000 176.053,225.634 167.730,229.600 165.909 C 237.015 162.503,235.532 162.638,268.200 162.407 L 297.400 162.200 297.400 160.000 L 297.400 157.800 268.200 157.593 C 235.532 157.362,237.015 157.497,229.600 154.091 C 225.634 152.270,216.000 143.947,216.000 142.341 C 216.000 142.154,215.820 142.000,215.600 142.000 C 215.339 142.000,215.200 148.267,215.200 160.000 M170.908 145.100 C 170.761 145.485,170.316 146.149,169.920 146.575 C 169.524 147.002,169.200 147.587,169.200 147.875 C 169.200 148.164,169.020 148.400,168.800 148.400 C 168.580 148.400,168.400 148.760,168.400 149.200 C 168.400 149.640,168.220 150.000,168.000 150.000 C 167.780 150.000,167.600 150.349,167.600 150.776 C 167.600 151.203,167.420 151.664,167.200 151.800 C 166.980 151.936,166.800 152.667,166.800 153.424 C 166.800 154.181,166.620 154.800,166.400 154.800 C 166.151 154.800,166.000 157.125,166.000 160.976 C 166.000 164.663,166.161 167.252,166.400 167.400 C 166.620 167.536,166.800 168.177,166.800 168.824 C 166.800 169.471,166.980 170.000,167.200 170.000 C 167.420 170.000,167.600 170.343,167.600 170.762 C 167.600 171.669,169.208 174.800,169.674 174.800 C 169.853 174.800,170.000 175.083,170.000 175.429 C 170.000 175.774,170.257 176.314,170.571 176.629 C 171.221 177.278,173.200 177.407,173.200 176.800 C 173.200 176.580,173.425 176.400,173.700 176.400 C 175.998 176.397,176.925 173.468,175.200 171.663 C 174.540 170.972,174.000 170.056,174.000 169.627 C 174.000 169.198,173.820 168.736,173.600 168.600 C 173.380 168.464,173.200 168.003,173.200 167.576 C 173.200 167.149,173.020 166.800,172.800 166.800 C 172.580 166.800,172.400 166.181,172.400 165.424 C 172.400 164.667,172.220 163.936,172.000 163.800 C 171.780 163.664,171.600 162.303,171.600 160.776 C 171.600 159.192,171.772 158.000,172.000 158.000 C 172.220 158.000,172.400 157.280,172.400 156.400 C 172.400 155.520,172.580 154.800,172.800 154.800 C 173.020 154.800,173.200 154.440,173.200 154.000 C 173.200 153.560,173.380 153.200,173.600 153.200 C 173.820 153.200,174.000 152.922,174.000 152.583 C 174.000 152.244,174.360 151.580,174.800 151.108 C 175.240 150.636,175.600 150.013,175.600 149.725 C 175.600 149.436,175.780 149.200,176.000 149.200 C 176.943 149.200,176.265 147.794,174.536 146.160 C 172.566 144.300,171.349 143.944,170.908 145.100 M179.700 151.086 C 178.765 152.104,178.000 153.176,178.000 153.469 C 178.000 153.761,177.820 154.000,177.600 154.000 C 177.380 154.000,177.200 154.540,177.200 155.200 C 177.200 155.860,177.020 156.400,176.800 156.400 C 176.557 156.400,176.400 158.192,176.400 160.976 C 176.400 163.596,176.571 165.658,176.800 165.800 C 177.020 165.936,177.200 166.397,177.200 166.824 C 177.200 167.251,177.380 167.600,177.600 167.600 C 177.820 167.600,178.000 167.960,178.000 168.400 C 178.000 168.840,178.180 169.200,178.400 169.200 C 178.620 169.200,178.800 169.452,178.800 169.760 C 178.800 170.326,181.441 173.200,181.962 173.200 C 182.403 173.200,184.944 170.684,185.500 169.698 C 186.215 168.429,186.136 168.053,184.900 166.850 C 183.457 165.445,182.800 164.242,182.800 163.005 C 182.800 162.452,182.620 162.000,182.400 162.000 C 182.180 162.000,182.000 161.460,182.000 160.800 C 182.000 160.140,182.180 159.600,182.400 159.600 C 182.620 159.600,182.800 159.060,182.800 158.400 C 182.800 157.740,182.950 157.200,183.132 157.200 C 183.315 157.200,183.720 156.705,184.032 156.100 C 184.345 155.495,184.915 154.651,185.300 154.225 C 185.685 153.798,186.000 153.337,186.000 153.200 C 186.000 153.063,185.685 152.602,185.300 152.175 C 184.915 151.749,184.345 150.905,184.032 150.300 C 183.156 148.602,181.746 148.858,179.700 151.086 M261.600 198.051 C 259.045 198.743,256.624 200.174,254.559 202.213 C 252.687 204.063,252.181 204.870,250.856 208.119 C 246.677 218.369,258.800 230.300,269.600 226.566 C 287.095 220.518,279.437 193.223,261.600 198.051 M268.800 200.506 C 272.460 201.797,275.463 204.718,276.797 208.283 C 278.386 212.531,277.621 216.735,274.550 220.626 C 269.110 227.521,257.505 225.898,253.575 217.694 C 249.075 208.301,259.032 197.059,268.800 200.506 M263.129 205.464 C 261.332 205.772,258.583 208.519,258.004 210.584 C 256.582 215.664,261.529 220.901,266.499 219.579 C 275.956 217.063,272.791 203.808,263.129 205.464 " stroke="none" fill="#d94756" fill-rule="evenodd"></path><path id="path1" d="M243.668 175.896 C 243.212 176.283,241.660 178.214,240.219 180.187 L 237.600 183.774 237.600 228.242 C 237.600 271.430,237.622 272.739,238.365 273.656 L 239.129 274.600 265.145 274.600 C 285.954 274.600,291.264 274.496,291.680 274.080 C 292.099 273.661,292.222 264.843,292.312 228.611 L 292.423 183.661 289.312 179.530 L 286.200 175.400 265.349 175.296 C 245.943 175.200,244.440 175.242,243.668 175.896 M273.715 194.336 C 289.099 201.783,288.909 223.773,273.400 230.814 C 253.213 239.978,235.319 214.785,250.494 198.563 C 256.317 192.339,265.961 190.583,273.715 194.336 M284.577 240.889 C 285.430 242.106,285.358 243.442,284.389 244.411 C 283.132 245.668,246.388 245.468,245.430 244.200 C 244.647 243.164,244.644 242.000,245.423 240.889 L 246.045 240.000 265.000 240.000 L 283.955 240.000 284.577 240.889 M284.191 247.823 C 284.744 248.242,284.982 248.895,284.982 250.000 C 284.982 252.868,285.663 252.773,265.082 252.787 L 246.764 252.800 245.782 251.818 C 245.242 251.278,244.800 250.460,244.800 250.000 C 244.800 249.540,245.242 248.722,245.782 248.182 L 246.764 247.200 265.082 247.213 C 280.702 247.224,283.516 247.313,284.191 247.823 M274.384 255.675 C 275.401 256.766,275.435 258.463,274.460 259.346 C 273.806 259.937,272.675 260.003,264.765 259.908 L 255.810 259.800 255.293 258.719 C 254.633 257.343,255.048 255.639,256.151 255.193 C 258.269 254.338,273.514 254.741,274.384 255.675 " stroke="none" fill="#e2eaea" fill-rule="evenodd"></path><path id="path2" d="M250.600 168.400 C 249.928 169.487,251.303 169.600,265.224 169.600 C 279.333 169.600,279.600 169.585,279.600 168.800 C 279.600 167.894,251.155 167.502,250.600 168.400 M240.600 179.025 C 239.060 181.125,237.736 183.058,237.657 183.321 C 237.579 183.584,238.712 182.180,240.176 180.200 C 241.641 178.220,243.210 176.285,243.664 175.900 C 244.195 175.449,244.295 175.201,243.944 175.204 C 243.645 175.206,242.140 176.926,240.600 179.025 M289.240 179.428 L 292.423 183.657 292.312 228.614 C 292.250 253.340,292.322 273.263,292.472 272.886 C 292.621 272.509,292.756 252.237,292.772 227.837 L 292.800 183.474 291.274 181.437 C 290.435 180.317,289.048 178.455,288.192 177.300 C 287.336 176.145,286.505 175.200,286.346 175.200 C 286.187 175.200,287.489 177.103,289.240 179.428 M263.500 192.693 C 264.435 192.777,265.965 192.777,266.900 192.693 C 267.835 192.609,267.070 192.540,265.200 192.540 C 263.330 192.540,262.565 192.609,263.500 192.693 M257.557 193.742 C 252.004 196.026,244.752 204.057,245.693 206.880 C 245.775 207.126,246.176 206.444,246.585 205.364 C 248.616 199.986,255.460 193.638,259.275 193.594 C 259.564 193.591,260.070 193.413,260.400 193.200 C 261.549 192.457,259.929 192.766,257.557 193.742 M269.600 193.200 C 269.930 193.413,270.560 193.588,271.000 193.588 C 271.662 193.588,271.697 193.521,271.200 193.200 C 270.870 192.987,270.240 192.812,269.800 192.812 C 269.138 192.812,269.103 192.879,269.600 193.200 M272.000 193.753 C 272.000 193.837,273.035 194.408,274.300 195.021 C 278.509 197.061,282.408 201.882,284.215 207.280 C 284.749 208.875,284.776 208.898,284.586 207.600 C 283.967 203.375,279.256 197.207,274.857 194.862 C 272.578 193.648,272.000 193.423,272.000 193.753 M245.050 208.850 C 244.737 210.416,244.793 215.093,245.140 216.325 C 245.283 216.833,245.417 215.078,245.437 212.425 C 245.476 207.260,245.438 206.909,245.050 208.850 M284.937 212.600 C 284.939 214.360,285.009 215.030,285.093 214.089 C 285.178 213.149,285.177 211.709,285.091 210.889 C 285.005 210.070,284.936 210.840,284.937 212.600 M284.222 217.129 C 284.058 217.859,284.022 218.556,284.142 218.676 C 284.443 218.977,284.920 216.956,284.699 216.317 C 284.601 216.033,284.386 216.398,284.222 217.129 M245.612 218.000 C 245.612 218.330,245.787 218.870,246.000 219.200 C 246.345 219.733,246.388 219.733,246.388 219.200 C 246.388 218.870,246.213 218.330,246.000 218.000 C 245.655 217.467,245.612 217.467,245.612 218.000 M282.702 221.371 C 281.231 224.371,277.227 228.532,274.553 229.841 C 273.354 230.427,272.452 230.985,272.548 231.081 C 273.858 232.391,281.650 224.989,283.531 220.648 C 284.415 218.608,283.790 219.153,282.702 221.371 M246.400 220.213 C 246.400 222.897,256.091 232.442,257.443 231.090 C 257.547 230.986,256.680 230.411,255.516 229.812 C 252.709 228.367,249.013 224.704,247.736 222.100 C 246.801 220.193,246.400 219.627,246.400 220.213 M258.400 231.600 C 258.730 231.813,259.270 231.988,259.600 231.988 C 260.133 231.988,260.133 231.945,259.600 231.600 C 259.270 231.387,258.730 231.212,258.400 231.212 C 257.867 231.212,257.867 231.255,258.400 231.600 M270.400 231.600 C 269.867 231.945,269.867 231.988,270.400 231.988 C 270.730 231.988,271.270 231.813,271.600 231.600 C 272.133 231.255,272.133 231.212,271.600 231.212 C 271.270 231.212,270.730 231.387,270.400 231.600 M261.400 232.400 C 262.060 232.568,263.680 232.705,265.000 232.705 C 266.320 232.705,267.940 232.568,268.600 232.400 C 269.347 232.210,267.989 232.095,265.000 232.095 C 262.011 232.095,260.653 232.210,261.400 232.400 M245.423 240.889 C 244.667 241.967,244.643 243.160,245.357 244.100 C 246.156 245.152,246.511 244.942,245.791 243.842 C 245.004 242.642,245.356 241.043,246.532 240.474 C 247.210 240.146,247.251 240.048,246.723 240.027 C 246.350 240.012,245.765 240.400,245.423 240.889 M283.925 240.816 C 284.990 241.808,285.054 243.246,284.073 244.134 C 283.424 244.721,281.365 244.803,264.973 244.900 L 246.600 245.008 265.100 245.104 C 283.133 245.198,283.620 245.180,284.400 244.400 C 285.654 243.146,285.012 240.000,283.502 240.000 C 283.253 240.000,283.443 240.367,283.925 240.816 M245.782 248.182 C 245.242 248.722,244.800 249.540,244.800 250.000 C 244.800 250.460,245.242 251.278,245.782 251.818 L 246.764 252.800 265.082 252.787 C 279.680 252.777,283.542 252.667,284.100 252.243 C 285.171 251.430,284.933 251.178,283.700 251.821 C 282.379 252.510,248.407 252.687,246.637 252.014 C 245.450 251.563,244.941 250.032,245.580 248.837 C 246.122 247.826,283.322 247.482,284.320 248.480 C 284.584 248.744,284.800 248.809,284.800 248.624 C 284.800 247.317,283.519 247.226,265.082 247.213 L 246.764 247.200 245.782 248.182 M265.000 255.092 C 272.989 255.195,273.434 255.242,274.100 256.045 C 275.039 257.177,274.982 258.199,273.925 259.184 C 273.443 259.633,273.235 260.000,273.463 260.000 C 275.061 260.000,275.686 257.072,274.384 255.675 C 273.589 254.822,273.356 254.802,265.084 254.891 L 256.600 254.983 265.000 255.092 M255.200 258.732 C 255.200 259.251,256.296 260.104,256.750 259.938 C 256.957 259.862,256.693 259.477,256.163 259.081 C 255.633 258.686,255.200 258.529,255.200 258.732 M237.600 273.345 C 237.600 273.694,238.131 274.254,238.780 274.590 C 240.496 275.477,290.219 275.514,291.424 274.629 C 292.115 274.121,292.001 274.101,290.383 274.444 C 289.294 274.675,278.659 274.783,263.847 274.715 L 239.129 274.600 238.364 273.656 C 237.797 272.955,237.600 272.875,237.600 273.345 " stroke="none" fill="#646c7c" fill-rule="evenodd"></path><path id="path3" d="M200.098 120.200 C 199.701 120.651,199.617 129.084,199.698 160.485 L 199.800 200.200 207.119 200.309 C 215.651 200.436,215.600 200.456,215.600 197.029 C 215.600 195.803,215.780 194.800,216.000 194.800 C 216.220 194.800,216.400 193.900,216.400 192.800 C 216.400 191.700,216.580 190.800,216.800 190.800 C 217.020 190.800,217.200 190.080,217.200 189.200 C 217.200 188.320,217.380 187.600,217.600 187.600 C 217.820 187.600,218.000 187.240,218.000 186.800 C 218.000 186.360,218.180 186.000,218.400 186.000 C 218.620 186.000,218.800 185.640,218.800 185.200 C 218.800 184.760,218.980 184.400,219.200 184.400 C 219.420 184.400,219.600 184.040,219.600 183.600 C 219.600 183.160,219.780 182.800,220.000 182.800 C 220.220 182.800,220.400 182.518,220.400 182.174 C 220.400 181.830,221.300 180.671,222.400 179.600 C 223.500 178.529,224.400 177.370,224.400 177.026 C 224.400 176.682,224.684 176.400,225.031 176.400 C 225.379 176.400,226.354 175.680,227.200 174.800 C 228.046 173.920,228.982 173.200,229.280 173.200 C 229.579 173.200,230.083 172.840,230.400 172.400 C 230.717 171.960,231.297 171.600,231.688 171.600 C 232.080 171.600,232.400 171.420,232.400 171.200 C 232.400 170.980,232.940 170.800,233.600 170.800 C 234.260 170.800,234.800 170.620,234.800 170.400 C 234.800 170.180,235.160 170.000,235.600 170.000 C 236.040 170.000,236.400 169.820,236.400 169.600 C 236.400 169.380,236.760 169.200,237.200 169.200 C 237.640 169.200,238.000 169.380,238.000 169.600 C 238.000 169.820,237.820 170.000,237.600 170.000 C 237.380 170.000,237.200 170.360,237.200 170.800 C 237.200 171.240,237.020 171.600,236.800 171.600 C 236.243 171.600,236.299 172.939,236.880 173.520 C 237.253 173.893,237.253 174.000,236.880 174.000 C 236.616 174.000,236.400 174.288,236.400 174.640 C 236.400 174.991,235.860 175.783,235.200 176.400 C 234.540 177.017,234.000 177.769,234.000 178.072 C 234.000 178.375,233.640 178.883,233.200 179.200 C 232.760 179.517,232.400 180.097,232.400 180.488 C 232.400 180.880,232.220 181.200,232.000 181.200 C 231.736 181.200,231.600 197.067,231.600 228.000 C 231.600 258.933,231.736 274.800,232.000 274.800 C 232.220 274.800,232.400 275.256,232.400 275.813 C 232.400 276.940,234.779 279.600,235.787 279.600 C 236.124 279.600,236.400 279.780,236.400 280.000 C 236.400 280.903,293.746 280.508,294.400 279.600 C 294.717 279.160,295.297 278.800,295.688 278.800 C 296.104 278.800,296.400 278.504,296.400 278.088 C 296.400 277.697,296.760 277.117,297.200 276.800 C 297.992 276.229,298.000 275.765,298.000 229.512 C 298.000 203.820,298.140 182.800,298.312 182.800 C 298.483 182.800,298.883 183.160,299.200 183.600 C 299.517 184.040,300.097 184.400,300.488 184.400 C 300.880 184.400,301.200 184.580,301.200 184.800 C 301.200 185.020,301.740 185.200,302.400 185.200 C 303.060 185.200,303.600 185.380,303.600 185.600 C 303.600 185.840,305.200 186.000,307.600 186.000 C 310.000 186.000,311.600 185.840,311.600 185.600 C 311.600 185.380,312.140 185.200,312.800 185.200 C 313.460 185.200,314.000 185.020,314.000 184.800 C 314.000 184.580,314.278 184.400,314.618 184.400 C 315.418 184.400,317.200 182.618,317.200 181.818 C 317.200 181.478,317.380 181.200,317.600 181.200 C 317.862 181.200,318.000 173.867,318.000 160.000 C 318.000 146.133,317.862 138.800,317.600 138.800 C 317.380 138.800,317.200 138.522,317.200 138.182 C 317.200 137.382,315.418 135.600,314.618 135.600 C 314.278 135.600,314.000 135.420,314.000 135.200 C 314.000 134.980,313.460 134.800,312.800 134.800 C 312.140 134.800,311.600 134.620,311.600 134.400 C 311.600 134.160,310.000 134.000,307.600 134.000 C 305.200 134.000,303.600 134.160,303.600 134.400 C 303.600 134.620,303.060 134.800,302.400 134.800 C 301.740 134.800,301.200 134.980,301.200 135.200 C 301.200 135.420,300.922 135.600,300.582 135.600 C 299.782 135.600,298.000 137.382,298.000 138.182 C 298.000 138.522,297.820 138.800,297.600 138.800 C 297.350 138.800,297.200 141.200,297.200 145.200 L 297.200 151.600 268.400 151.600 C 249.467 151.600,239.600 151.463,239.600 151.200 C 239.600 150.980,238.880 150.800,238.000 150.800 C 237.120 150.800,236.400 150.620,236.400 150.400 C 236.400 150.180,236.040 150.000,235.600 150.000 C 235.160 150.000,234.800 149.820,234.800 149.600 C 234.800 149.380,234.260 149.200,233.600 149.200 C 232.940 149.200,232.400 149.020,232.400 148.800 C 232.400 148.580,232.080 148.400,231.688 148.400 C 231.297 148.400,230.717 148.040,230.400 147.600 C 230.083 147.160,229.579 146.800,229.280 146.800 C 228.982 146.800,228.046 146.080,227.200 145.200 C 226.354 144.320,225.379 143.600,225.031 143.600 C 224.684 143.600,224.400 143.318,224.400 142.974 C 224.400 142.630,223.500 141.471,222.400 140.400 C 221.300 139.329,220.400 138.170,220.400 137.826 C 220.400 137.482,220.220 137.200,220.000 137.200 C 219.780 137.200,219.600 136.840,219.600 136.400 C 219.600 135.960,219.420 135.600,219.200 135.600 C 218.980 135.600,218.800 135.240,218.800 134.800 C 218.800 134.360,218.620 134.000,218.400 134.000 C 218.180 134.000,218.000 133.640,218.000 133.200 C 218.000 132.760,217.820 132.400,217.600 132.400 C 217.380 132.400,217.200 131.680,217.200 130.800 C 217.200 129.920,217.020 129.200,216.800 129.200 C 216.580 129.200,216.400 128.300,216.400 127.200 C 216.400 126.100,216.220 125.200,216.000 125.200 C 215.780 125.200,215.600 124.197,215.600 122.971 C 215.600 119.596,215.603 119.597,207.529 119.615 C 202.048 119.627,200.495 119.750,200.098 120.200 M210.200 160.000 L 210.200 195.000 207.500 195.118 L 204.800 195.237 204.800 160.000 L 204.800 124.763 207.500 124.882 L 210.200 125.000 210.200 160.000 M311.746 140.429 L 312.800 141.258 312.800 160.000 L 312.800 178.742 311.746 179.571 C 310.886 180.247,310.123 180.400,307.600 180.400 C 305.077 180.400,304.314 180.247,303.454 179.571 L 302.400 178.742 302.400 160.000 L 302.400 141.258 303.454 140.429 C 304.314 139.753,305.077 139.600,307.600 139.600 C 310.123 139.600,310.886 139.753,311.746 140.429 M216.800 142.460 C 220.207 148.041,227.768 153.366,235.855 155.879 L 239.400 156.981 268.183 157.110 C 287.908 157.199,297.128 157.375,297.483 157.669 C 298.041 158.132,298.186 161.488,297.682 162.280 C 297.451 162.645,290.392 162.792,268.389 162.890 L 239.400 163.019 235.855 164.121 C 227.768 166.634,220.209 171.957,216.800 177.539 C 215.053 180.400,215.006 179.979,214.896 160.367 C 214.775 138.847,214.748 139.098,216.800 142.460 M279.927 168.700 L 279.800 169.800 265.383 169.905 C 250.043 170.017,248.620 169.863,249.964 168.243 C 250.437 167.673,252.186 167.600,265.276 167.600 L 280.053 167.600 279.927 168.700 M244.400 168.800 C 244.400 169.022,243.333 169.200,242.000 169.200 C 240.667 169.200,239.600 169.022,239.600 168.800 C 239.600 168.578,240.667 168.400,242.000 168.400 C 243.333 168.400,244.400 168.578,244.400 168.800 M297.200 173.600 C 297.200 176.460,297.086 178.800,296.947 178.800 C 296.562 178.800,294.801 176.657,294.800 176.188 C 294.800 175.962,294.440 175.517,294.000 175.200 C 293.412 174.776,293.200 174.165,293.200 172.894 C 293.200 170.196,291.964 169.200,288.618 169.200 C 287.139 169.200,286.000 169.026,286.000 168.800 C 286.000 168.552,288.133 168.400,291.600 168.400 L 297.200 168.400 297.200 173.600 M289.468 178.484 C 290.971 180.510,292.429 182.576,292.708 183.075 C 293.436 184.375,293.242 272.578,292.508 273.858 C 291.545 275.540,290.593 275.600,265.000 275.600 C 239.750 275.600,238.414 275.521,237.592 273.984 C 237.343 273.519,237.200 256.814,237.200 228.175 L 237.200 183.097 240.286 178.948 L 243.371 174.800 265.054 174.800 L 286.736 174.800 289.468 178.484 M258.927 193.963 C 239.757 200.499,242.022 228.616,261.966 231.703 C 278.655 234.287,290.550 215.697,281.183 201.670 C 276.457 194.593,266.843 191.264,258.927 193.963 M269.227 197.835 C 275.885 199.782,280.175 205.499,280.155 212.396 C 280.099 231.065,253.585 233.266,249.986 214.900 C 247.898 204.246,258.623 194.734,269.227 197.835 M261.648 200.861 C 255.842 202.531,252.061 208.848,253.250 214.893 C 255.483 226.240,271.337 227.985,276.037 217.400 C 280.132 208.178,271.341 198.073,261.648 200.861 M269.485 206.256 C 272.768 208.900,273.674 212.618,271.869 216.037 C 267.609 224.106,255.203 219.303,257.573 210.501 C 258.958 205.357,265.482 203.032,269.485 206.256 M246.262 241.131 C 245.484 241.991,245.403 243.243,246.080 243.920 C 246.771 244.611,283.229 244.611,283.920 243.920 C 284.626 243.214,284.504 241.567,283.700 240.957 C 282.447 240.006,247.132 240.171,246.262 241.131 M246.229 248.629 C 245.883 248.974,245.600 249.591,245.600 250.000 C 245.600 252.006,245.541 252.000,264.855 252.000 C 284.153 252.000,284.400 251.975,284.400 250.000 C 284.400 249.251,284.121 248.679,283.626 248.414 C 282.219 247.661,246.994 247.863,246.229 248.629 M256.080 256.080 C 255.316 256.844,255.522 258.300,256.489 258.977 C 257.221 259.490,258.774 259.600,265.260 259.600 C 273.754 259.600,274.400 259.448,274.400 257.451 C 274.400 255.697,273.906 255.600,265.000 255.600 C 258.969 255.600,256.423 255.737,256.080 256.080 " stroke="none" fill="#040404" fill-rule="evenodd"></path><path id="path4" d="M204.800 160.000 L 204.800 195.237 207.500 195.118 L 210.200 195.000 210.200 160.000 L 210.200 125.000 207.500 124.882 L 204.800 124.763 204.800 160.000 M209.748 126.100 C 210.063 127.276,210.063 192.724,209.748 193.900 C 209.536 194.692,209.248 194.800,207.353 194.800 L 205.200 194.800 205.200 160.000 L 205.200 125.200 207.353 125.200 C 209.248 125.200,209.536 125.308,209.748 126.100 M303.454 140.429 L 302.400 141.258 302.400 160.000 L 302.400 178.742 303.454 179.571 C 304.314 180.247,305.077 180.400,307.600 180.400 C 310.123 180.400,310.886 180.247,311.746 179.571 L 312.800 178.742 312.800 160.000 L 312.800 141.258 311.746 140.429 C 310.886 139.753,310.123 139.600,307.600 139.600 C 305.077 139.600,304.314 139.753,303.454 140.429 M311.400 140.630 C 312.180 141.219,312.200 141.703,312.200 160.000 C 312.200 181.859,312.638 179.966,307.575 179.987 C 305.073 179.998,304.400 179.859,303.675 179.184 L 302.800 178.369 302.800 160.000 L 302.800 141.631 303.675 140.816 C 304.793 139.775,310.100 139.647,311.400 140.630 M214.983 141.300 C 214.592 142.321,214.996 178.932,215.400 179.055 C 215.620 179.122,216.250 178.440,216.800 177.539 C 220.209 171.957,227.768 166.634,235.855 164.121 L 239.400 163.019 268.389 162.890 C 290.392 162.792,297.451 162.645,297.682 162.280 C 298.186 161.488,298.041 158.132,297.483 157.669 C 297.128 157.375,287.908 157.199,268.183 157.110 L 239.400 156.981 235.855 155.879 C 227.768 153.366,220.207 148.041,216.800 142.460 C 215.755 140.748,215.305 140.461,214.983 141.300 M216.000 142.341 C 216.000 143.947,225.634 152.270,229.600 154.091 C 237.015 157.497,235.532 157.362,268.200 157.593 L 297.400 157.800 297.400 160.000 L 297.400 162.200 268.200 162.407 C 235.532 162.638,237.015 162.503,229.600 165.909 C 225.634 167.730,216.000 176.053,216.000 177.659 C 216.000 177.846,215.820 178.000,215.600 178.000 C 215.339 178.000,215.200 171.733,215.200 160.000 C 215.200 148.267,215.339 142.000,215.600 142.000 C 215.820 142.000,216.000 142.154,216.000 142.341 M249.964 168.243 C 248.620 169.863,250.043 170.017,265.383 169.905 L 279.800 169.800 279.927 168.700 L 280.053 167.600 265.276 167.600 C 252.186 167.600,250.437 167.673,249.964 168.243 M279.600 168.800 C 279.600 169.706,251.155 170.098,250.600 169.200 C 249.928 168.113,251.303 168.000,265.224 168.000 C 279.333 168.000,279.600 168.015,279.600 168.800 M242.446 176.100 L 241.542 177.400 242.552 176.300 L 243.562 175.200 265.052 175.200 L 286.542 175.200 287.700 176.500 L 288.858 177.800 287.781 176.300 L 286.705 174.800 265.028 174.800 L 243.350 174.800 242.446 176.100 M239.236 180.351 L 237.197 183.102 237.300 228.451 L 237.403 273.800 237.502 228.438 L 237.600 183.076 238.524 181.838 C 239.032 181.157,239.953 179.925,240.571 179.100 C 241.189 178.275,241.601 177.600,241.485 177.600 C 241.370 177.600,240.358 178.838,239.236 180.351 M289.966 179.700 C 291.397 181.719,293.000 183.653,292.531 182.794 C 291.996 181.814,289.141 178.000,288.943 178.000 C 288.843 178.000,289.304 178.765,289.966 179.700 M292.993 227.600 C 292.993 251.910,293.041 261.855,293.100 249.700 C 293.159 237.545,293.159 217.655,293.100 205.500 C 293.041 193.345,292.993 203.290,292.993 227.600 M260.538 193.106 C 260.284 193.268,262.292 193.400,265.000 193.400 C 267.708 193.400,269.716 193.268,269.462 193.106 C 269.208 192.944,267.200 192.812,265.000 192.812 C 262.800 192.812,260.792 192.944,260.538 193.106 M275.024 195.826 C 276.331 196.610,278.028 197.825,278.796 198.526 C 280.101 199.717,280.127 199.724,279.196 198.643 C 278.150 197.428,273.772 194.400,273.062 194.400 C 272.834 194.400,273.716 195.042,275.024 195.826 M253.800 196.081 C 251.938 197.409,250.403 198.887,249.521 200.200 C 249.078 200.860,249.390 200.623,250.213 199.673 C 251.037 198.724,252.628 197.329,253.750 196.573 C 254.872 195.818,255.612 195.206,255.395 195.213 C 255.178 195.220,254.460 195.610,253.800 196.081 M260.650 197.855 C 253.352 200.096,248.580 207.724,249.986 214.900 C 253.585 233.266,280.099 231.065,280.155 212.396 C 280.185 202.230,270.329 194.882,260.650 197.855 M268.618 198.147 C 285.332 202.598,282.267 227.158,264.994 227.194 C 255.349 227.214,247.428 216.526,250.856 208.119 C 252.181 204.870,252.687 204.063,254.559 202.213 C 258.588 198.233,263.551 196.798,268.618 198.147 M260.151 200.978 C 250.114 205.542,249.977 219.355,259.924 223.908 C 264.816 226.148,271.350 224.682,274.550 220.626 C 276.631 217.989,277.600 215.439,277.600 212.596 C 277.600 203.721,268.071 197.376,260.151 200.978 M281.055 201.400 C 281.667 202.280,282.220 203.075,282.284 203.167 C 282.348 203.258,282.400 203.162,282.400 202.952 C 282.400 202.742,281.847 201.947,281.171 201.185 L 279.942 199.800 281.055 201.400 M267.946 200.826 C 274.945 202.327,279.021 210.678,276.037 217.400 C 271.337 227.985,255.483 226.240,253.250 214.893 C 251.527 206.136,259.064 198.921,267.946 200.826 M247.916 202.500 C 247.278 203.496,246.743 204.800,246.972 204.800 C 247.053 204.800,247.495 204.080,247.953 203.200 C 248.860 201.460,248.839 201.058,247.916 202.500 M261.548 205.580 C 254.222 209.565,256.984 220.246,265.318 220.152 C 270.900 220.090,274.619 213.804,271.893 209.038 C 269.717 205.232,265.054 203.674,261.548 205.580 M269.001 206.457 C 272.990 209.190,273.251 215.305,269.500 218.142 C 262.072 223.762,253.302 213.356,260.286 207.208 C 262.798 204.997,266.415 204.685,269.001 206.457 M245.849 207.015 C 245.712 207.373,245.621 208.146,245.646 208.733 C 245.680 209.532,245.770 209.398,246.004 208.200 C 246.335 206.500,246.262 205.940,245.849 207.015 M284.296 211.241 C 284.497 216.333,284.703 216.985,284.725 212.600 C 284.736 210.620,284.610 208.658,284.446 208.241 C 284.282 207.823,284.215 209.173,284.296 211.241 M245.320 212.800 C 245.320 214.010,245.395 214.505,245.487 213.900 C 245.578 213.295,245.578 212.305,245.487 211.700 C 245.395 211.095,245.320 211.590,245.320 212.800 M245.693 216.400 C 245.693 217.170,245.775 217.485,245.876 217.100 C 245.976 216.715,245.976 216.085,245.876 215.700 C 245.775 215.315,245.693 215.630,245.693 216.400 M283.532 218.400 C 283.406 218.950,283.178 219.760,283.026 220.200 C 282.874 220.640,283.042 220.495,283.399 219.877 C 283.757 219.259,283.985 218.449,283.905 218.077 C 283.802 217.594,283.695 217.687,283.532 218.400 M281.639 222.624 C 281.177 223.407,280.980 223.936,281.202 223.799 C 281.636 223.531,282.934 221.200,282.650 221.200 C 282.556 221.200,282.101 221.841,281.639 222.624 M248.056 222.800 C 248.602 223.940,252.649 228.291,253.674 228.839 C 254.048 229.040,253.137 227.988,251.651 226.502 C 250.164 225.016,248.640 223.350,248.262 222.800 L 247.577 221.800 248.056 222.800 M278.783 226.236 C 277.802 227.246,276.100 228.595,275.000 229.233 C 273.900 229.871,273.190 230.394,273.422 230.396 C 274.204 230.403,277.388 228.112,279.183 226.250 C 280.164 225.232,280.877 224.400,280.767 224.400 C 280.657 224.400,279.764 225.226,278.783 226.236 M259.600 231.605 C 259.930 231.816,260.725 231.991,261.367 231.994 C 262.914 232.002,262.577 231.771,260.600 231.468 C 259.510 231.301,259.191 231.345,259.600 231.605 M268.600 231.600 L 267.000 231.886 268.400 231.937 C 269.170 231.965,270.070 231.813,270.400 231.600 C 271.055 231.177,270.962 231.177,268.600 231.600 M264.984 240.300 C 276.164 240.367,283.118 240.558,283.364 240.804 C 283.582 241.022,283.938 241.200,284.156 241.200 C 284.375 241.200,284.204 240.936,283.776 240.613 C 283.117 240.114,280.298 240.038,265.000 240.108 L 247.000 240.192 264.984 240.300 M284.454 242.420 C 284.425 242.981,284.184 243.656,283.920 243.920 C 283.212 244.628,246.794 244.609,245.999 243.900 C 245.522 243.475,245.518 243.504,245.968 244.100 C 246.827 245.235,283.140 245.172,284.170 244.033 C 284.572 243.589,284.790 242.873,284.687 242.333 C 284.515 241.431,284.507 241.434,284.454 242.420 M245.527 249.000 C 245.028 250.096,245.595 252.000,246.420 252.000 C 246.660 252.000,246.574 251.717,246.229 251.371 C 245.883 251.026,245.600 250.409,245.600 250.000 C 245.600 249.591,245.883 248.974,246.229 248.629 C 246.574 248.283,246.660 248.000,246.420 248.000 C 246.180 248.000,245.778 248.450,245.527 249.000 M283.700 248.432 C 284.112 248.672,284.400 249.317,284.400 250.000 C 284.400 250.683,284.112 251.328,283.700 251.568 C 283.315 251.792,283.189 251.981,283.420 251.988 C 284.152 252.009,284.800 251.076,284.800 250.000 C 284.800 248.924,284.152 247.991,283.420 248.012 C 283.189 248.019,283.315 248.208,283.700 248.432 M256.127 252.300 C 261.147 252.363,269.247 252.363,274.127 252.300 C 279.007 252.236,274.900 252.184,265.000 252.184 C 255.100 252.184,251.107 252.236,256.127 252.300 M255.862 255.931 C 254.900 256.994,255.049 258.223,256.254 259.171 C 257.339 260.024,272.840 260.504,273.339 259.700 C 273.441 259.535,269.921 259.452,265.517 259.516 C 258.790 259.614,257.357 259.533,256.555 259.007 C 255.527 258.334,255.289 256.871,256.080 256.080 C 256.776 255.384,273.219 255.403,274.001 256.100 C 274.478 256.525,274.482 256.496,274.032 255.900 C 273.207 254.810,256.851 254.839,255.862 255.931 M274.446 257.267 C 274.421 257.634,274.296 258.264,274.170 258.667 C 273.952 259.362,273.963 259.363,274.397 258.687 C 274.648 258.296,274.773 257.666,274.673 257.287 C 274.511 256.668,274.488 256.666,274.446 257.267 M292.100 273.700 C 291.670 274.875,291.680 274.926,292.212 274.224 C 292.721 273.552,293.021 272.400,292.688 272.400 C 292.626 272.400,292.361 272.985,292.100 273.700 M252.529 275.500 C 259.530 275.561,270.870 275.561,277.729 275.500 C 284.588 275.438,278.860 275.388,265.000 275.388 C 251.140 275.388,245.528 275.439,252.529 275.500 " stroke="none" fill="#473134" fill-rule="evenodd"></path></g></svg>